<svg id="Layer_1" data-name="Layer 1" xmlns="http://www.w3.org/2000/svg" viewBox="0 0 1177.44 727.74"><defs><style>.cls-1{fill:none;stroke:#009fc5;stroke-width:6px;}</style></defs><title>home-background</title><polyline class="cls-1" points="5.48 142.62 592.72 315.29 1176.88 205.41"/><polyline class="cls-1" points="1175.35 172.71 646.38 260.36 89.82 5.27"/><polyline class="cls-1" points="2.42 249.88 591.19 380.7 1176.88 320.52"/><polyline class="cls-1" points="0.88 276.05 581.98 455.26 1175.35 506.28"/><polyline class="cls-1" points="1176.88 544.21 592.72 579.53 2.42 323.14"/><polyline class="cls-1" points="3.95 455.26 585.05 610.92 1175.34 561.22"/><polyline class="cls-1" points="1176.88 599.16 583.52 693.34 0.88 523.28"/><polyline class="cls-1" points="3.95 554.68 583.52 724.73 1175.34 705.12"/><polyline class="cls-1" points="353.54 2.65 652.51 160.94 1173.82 82.45"/><polyline class="cls-1" points="417.93 3.96 658.64 119.07 897.83 3.96"/></svg>