<svg xmlns="http://www.w3.org/2000/svg" viewBox="0 0 928.4 940"><defs><style>.cls-1{fill:#fff;}.cls-2{fill:none;stroke:#000;stroke-miterlimit:10;stroke-width:46px;}</style></defs><title>mikey-skull</title><g id="base_skull" data-name="base skull"><path d="M226.42,980S40.74,968.4,40.74,817.53V457.78c0-51.06,116-208.89,255.31-208.89H713.83c139.26,0,255.31,157.83,255.31,208.89V817.53C969.14,968.4,783.46,980,783.46,980Z" transform="translate(-40.74 -40)"/><path class="cls-1" d="M319.26,967.5a80.43,80.43,0,0,1-80.34-80.34V723.8h-12.5c-.43,0-45.1-.3-88.74-18.19-56-23-84.44-63.41-84.44-120.18v-383c0-23.83,11.64-61.61,37.65-92.3C113.19,83.86,154.8,52.5,226.42,52.5h557c71.62,0,113.23,31.36,135.52,57.67,26,30.69,37.66,68.47,37.66,92.3v383c0,56.77-28.41,97.21-84.44,120.18-43.65,17.89-88.31,18.18-88.75,18.19l-12.48,0V887.16a80.43,80.43,0,0,1-80.34,80.34Z" transform="translate(-40.74 -40)"/><path d="M783.46,65c28.81,0,54.76,5.33,77.13,15.83a143.77,143.77,0,0,1,48.86,37.42c24,28.28,34.69,62.67,34.69,84.22v383c0,28.64-7.51,51.83-22.95,70.88-12.53,15.47-30.42,28.08-53.15,37.49-41.38,17.13-84.2,17.49-84.58,17.5h-25V887.16A68.12,68.12,0,0,1,690.62,955H319.26a68.12,68.12,0,0,1-67.84-67.84V736.3l.05-25h-25c-.43,0-43.25-.37-84.63-17.5-22.74-9.41-40.62-22-53.15-37.49-15.44-19-23-42.24-23-70.88v-383c0-21.55,10.73-55.94,34.69-84.22a143.68,143.68,0,0,1,48.86-37.42C171.65,70.33,197.61,65,226.42,65h557m0-25h-557C87.16,40,40.74,151.41,40.74,202.47v383c0,150.87,185.68,150.87,185.68,150.87V887.16c0,51.06,41.78,92.84,92.84,92.84H690.62c51.06,0,92.84-41.78,92.84-92.84V736.3s185.68,0,185.68-150.87v-383C969.14,151.41,922.72,40,783.46,40Z" transform="translate(-40.74 -40)"/><g id="nostrils"><polygon points="483.07 452.02 483.07 605.55 585.42 605.55 483.07 452.02"/><polygon points="428.97 452.02 428.97 605.55 326.62 605.55 428.97 452.02"/></g><circle cx="684.69" cy="324.94" r="102.12"/><circle cx="243.7" cy="324.94" r="102.12"/><g id="toofs"><line class="cls-2" x1="608.27" y1="815.08" x2="608.27" y2="928.16"/><line class="cls-2" x1="449.85" y1="750" x2="449.85" y2="928.98"/><line class="cls-2" x1="319.22" y1="815.08" x2="319.22" y2="928.16"/></g></g></svg>